<svg xmlns="http://www.w3.org/2000/svg" viewBox="0 0 24 24" width="64" height="64" fill="none">
  <rect width="24" height="24" rx="4" fill="#333"/>
  <path d="M12 .5C5.65.5.5 5.65.5 12c0 5.08 3.29 9.39 7.86 10.91.57.1.78-.25.78-.55 0-.27-.01-1-.01-1.96-3.2.7-3.88-1.54-3.88-1.54-.52-1.33-1.28-1.69-1.28-1.69-1.05-.72.08-.7.08-.7 1.16.08 1.77 1.2 1.77 1.2 1.03 1.77 2.7 1.26 3.36.97.1-.76.4-1.26.72-1.55-2.56-.29-5.25-1.28-5.25-5.68 0-1.25.45-2.28 1.2-3.09-.12-.3-.52-1.52.11-3.16 0 0 .98-.31 3.2 1.18a11.1 11.1 0 0 1 2.92-.39c.99.01 1.99.13 2.92.39 2.22-1.49 3.2-1.18 3.2-1.18.63 1.64.23 2.86.11 3.16.75.81 1.2 1.84 1.2 3.09 0 4.41-2.7 5.39-5.27 5.67.41.35.77 1.05.77 2.12 0 1.53-.01 2.76-.01 3.14 0 .3.2.66.79.55C20.71 21.39 24 17.08 24 12c0-6.35-5.15-11.5-12-11.5z" fill="#fff"/>
</svg>