<?xml version="1.0" encoding="UTF-8" standalone="no"?><!DOCTYPE svg PUBLIC "-//W3C//DTD SVG 1.1//EN" "http://www.w3.org/Graphics/SVG/1.1/DTD/svg11.dtd"><svg width="100%" height="100%" viewBox="0 0 405 455" version="1.1" xmlns="http://www.w3.org/2000/svg" xmlns:xlink="http://www.w3.org/1999/xlink" xml:space="preserve" xmlns:serif="http://www.serif.com/" style="fill-rule:evenodd;clip-rule:evenodd;stroke-linejoin:round;stroke-miterlimit:2;"><path d="M320.833,141.667l4.167,0l0,8.333l4.167,0l0,12.5l4.167,0l0,16.667l4.167,0l0,58.333l-4.167,0l0,16.667l-4.167,0l0,12.5l-4.167,0l0,8.333l-4.167,0l0,8.333l-4.167,0l0,8.333l-4.167,0l0,4.167l-4.167,0l0,8.333l-4.167,0l0,4.167l-4.167,0l0,4.167l-4.167,0l0,4.167l-4.167,0l0,4.167l-4.167,0l0,4.167l-4.167,0l0,4.167l-4.167,0l0,4.167l-4.167,0l0,4.167l-4.167,0l0,4.167l-8.333,0l0,4.167l-4.167,0l0,4.167l-8.333,0l0,4.167l-8.333,0l0,4.167l-8.333,0l0,4.167l-12.5,0l0,4.167l-16.667,0l0,4.167l-58.333,0l0,-4.167l-16.667,0l0,-4.167l-12.5,0l0,-4.167l-8.333,0l0,-4.167l-8.333,0l0,-4.167l-8.333,0l0,-4.167l-4.167,0l0,-4.167l-8.333,0l0,-4.167l-4.167,0l0,-4.167l-4.167,0l0,-4.167l-4.167,0l0,-4.167l-4.167,0l0,-4.167l-4.167,0l0,-4.167l-4.167,0l0,-4.167l-4.167,0l0,-4.167l-4.167,0l0,-4.167l-4.167,0l0,-8.333l-4.167,0l0,-4.167l-4.167,0l0,-8.333l-4.167,0l0,-8.333l-4.167,0l0,-8.333l-4.167,0l0,-12.5l-4.167,0l0,-16.667l-4.167,0l0,-58.333l4.167,0l0,-16.667l4.167,0l0,-12.5l4.167,0l0,-8.333l4.167,0l0,-8.333l4.167,0l0,-8.333l4.167,0l0,-4.167l4.167,0l0,-8.333l4.167,0l0,-4.167l4.167,0l0,-4.167l4.167,0l0,-4.167l4.167,0l0,-4.167l4.167,0l0,-4.167l4.167,0l0,-4.167l4.167,0l0,-4.167l4.167,0l0,-4.167l4.167,0l0,-4.167l8.333,0l0,-4.167l4.167,0l0,-4.167l8.333,0l0,-4.167l8.333,0l0,-4.167l8.333,0l0,-4.167l12.5,0l0,-4.167l16.667,0l0,-4.167l58.333,0l0,4.167l16.667,0l0,4.167l12.5,0l0,4.167l8.333,0l0,4.167l8.333,0l0,4.167l8.333,0l0,4.167l4.167,0l0,4.167l8.333,0l0,4.167l4.167,0l0,4.167l4.167,0l0,4.167l4.167,0l0,4.167l4.167,0l0,4.167l4.167,0l0,4.167l4.167,0l0,4.167l4.167,0l0,4.167l4.167,0l0,4.167l4.167,0l0,8.333l4.167,0l0,4.167l4.167,0l0,8.333l4.167,0l0,8.333Zm-120.833,-79.167l-50,0l0,4.167l-16.667,0l0,4.167l-12.5,0l0,4.167l-8.333,0l0,4.167l-8.333,0l0,4.167l-8.333,0l0,4.167l-4.167,0l0,4.167l-8.333,0l0,4.167l-4.167,0l0,4.167l-4.167,0l0,4.167l-4.167,0l0,4.167l-4.167,0l0,4.167l-4.167,0l0,4.167l-4.167,0l0,8.333l-4.167,0l0,4.167l-4.167,0l0,8.333l-4.167,0l0,8.333l-4.167,0l0,8.333l-4.167,0l0,12.5l-4.167,0l0,16.667l-4.167,0l0,50l4.167,0l0,16.667l4.167,0l0,12.5l4.167,0l0,8.333l4.167,0l0,8.333l4.167,0l0,8.333l4.167,0l0,4.167l4.167,0l0,8.333l4.167,0l0,4.167l4.167,0l0,4.167l4.167,0l0,4.167l4.167,0l0,4.167l4.167,0l0,4.167l4.167,0l0,4.167l8.333,0l0,4.167l4.167,0l0,4.167l8.333,0l0,4.167l8.333,0l0,4.167l8.333,0l0,4.167l12.5,0l0,4.167l16.667,0l0,4.167l50,0l0,-4.167l16.667,0l0,-4.167l12.5,0l0,-4.167l8.333,0l0,-4.167l8.333,0l0,-4.167l8.333,0l0,-4.167l4.167,0l0,-4.167l8.333,0l0,-4.167l4.167,0l0,-4.167l4.167,0l0,-4.167l4.167,0l0,-4.167l4.167,0l0,-4.167l4.167,0l0,-4.167l4.167,0l0,-8.333l4.167,0l0,-4.167l4.167,0l0,-8.333l4.167,0l0,-8.333l4.167,0l0,-8.333l4.167,0l0,-12.5l4.167,0l0,-16.667l4.167,0l0,-50l-4.167,0l0,-16.667l-4.167,0l0,-12.5l-4.167,0l0,-8.333l-4.167,0l0,-8.333l-4.167,0l0,-8.333l-4.167,0l0,-4.167l-4.167,0l0,-8.333l-4.167,0l0,-4.167l-4.167,0l0,-4.167l-4.167,0l0,-4.167l-4.167,0l0,-4.167l-4.167,0l0,-4.167l-4.167,0l0,-4.167l-8.333,0l0,-4.167l-4.167,0l0,-4.167l-8.333,0l0,-4.167l-8.333,0l0,-4.167l-8.333,0l0,-4.167l-12.5,0l0,-4.167l-16.667,0l0,-4.167Z" style="fill:#5f2b17;"/><path d="M270.833,100l4.167,0l0,4.167l4.167,0l0,4.167l4.167,0l0,4.167l4.167,0l0,4.167l4.167,0l0,8.333l4.167,0l0,4.167l4.167,0l0,8.333l4.167,0l0,8.333l4.167,0l0,8.333l4.167,0l0,12.5l4.167,0l0,16.667l4.167,0l0,50l-4.167,0l0,16.667l-4.167,0l0,12.5l-4.167,0l0,8.333l-4.167,0l0,8.333l-4.167,0l0,8.333l-4.167,0l0,4.167l-4.167,0l0,8.333l-4.167,0l0,4.167l-4.167,0l0,4.167l-4.167,0l0,4.167l-4.167,0l0,4.167l-4.167,0l0,4.167l-4.167,0l0,4.167l-8.333,0l0,4.167l-4.167,0l0,4.167l-8.333,0l0,4.167l-8.333,0l0,4.167l-8.333,0l0,4.167l-12.5,0l0,4.167l-16.667,0l0,4.167l-50,0l0,-4.167l-16.667,0l0,-4.167l-12.5,0l0,-4.167l-8.333,0l0,-4.167l-8.333,0l0,-4.167l-8.333,0l0,-4.167l-4.167,0l0,-4.167l-8.333,0l0,-4.167l-4.167,0l0,-4.167l-4.167,0l0,-4.167l-4.167,0l0,-4.167l-4.167,0l0,-4.167l-4.167,0l0,-4.167l-4.167,0l0,-8.333l-4.167,0l0,-4.167l-4.167,0l0,-8.333l-4.167,0l0,-8.333l-4.167,0l0,-8.333l-4.167,0l0,-12.5l-4.167,0l0,-16.667l-4.167,0l0,-50l4.167,0l0,-16.667l4.167,0l0,-12.5l4.167,0l0,-8.333l4.167,0l0,-8.333l4.167,0l0,-8.333l4.167,0l0,-4.167l4.167,0l0,-8.333l4.167,0l0,-4.167l4.167,0l0,-4.167l4.167,0l0,-4.167l4.167,0l0,-4.167l4.167,0l0,-4.167l4.167,0l0,-4.167l8.333,0l0,-4.167l4.167,0l0,-4.167l8.333,0l0,-4.167l8.333,0l0,-4.167l8.333,0l0,-4.167l12.5,0l0,-4.167l16.667,0l0,-4.167l50,0l0,4.167l16.667,0l0,4.167l12.5,0l0,4.167l8.333,0l0,4.167l8.333,0l0,4.167l8.333,0l0,4.167l4.167,0l0,4.167l8.333,0l0,4.167l4.167,0l0,4.167Zm-54.167,29.167l0,4.167l-4.167,0l0,4.167l-4.167,0l0,8.333l-20.833,0l0,8.333l-16.667,0l0,8.333l-25,0l0,8.333l-12.5,0l0,-4.167l4.167,0l0,-4.167l4.167,0l0,-4.167l4.167,0l0,-20.833l-4.167,0l0,-4.167l-4.167,0l0,-4.167l-4.167,0l0,-4.167l-20.833,0l0,4.167l-4.167,0l0,4.167l-4.167,0l0,4.167l-4.167,0l0,20.833l4.167,0l0,4.167l4.167,0l0,4.167l4.167,0l0,4.167l8.333,0l0,8.333l-33.333,0l0,8.333l-25,0l0,8.333l8.333,0l0,8.333l8.333,0l0,8.333l8.333,0l0,8.333l8.333,0l0,8.333l16.667,0l0,-8.333l8.333,0l0,8.333l8.333,0l0,16.667l8.333,0l0,12.5l-4.167,0l0,-4.167l-20.833,0l0,4.167l-4.167,0l0,4.167l-4.167,0l0,4.167l-4.167,0l0,20.833l4.167,0l0,4.167l4.167,0l0,4.167l4.167,0l0,4.167l20.833,0l0,-4.167l4.167,0l0,-4.167l4.167,0l0,-4.167l12.5,0l0,-8.333l8.333,0l0,-8.333l8.333,0l0,-8.333l25,0l0,-8.333l8.333,0l0,-8.333l8.333,0l0,20.833l-4.167,0l0,20.833l4.167,0l0,4.167l4.167,0l0,4.167l4.167,0l0,4.167l20.833,0l0,-4.167l4.167,0l0,-4.167l4.167,0l0,-4.167l4.167,0l0,-20.833l-4.167,0l0,-4.167l-4.167,0l0,-25l8.333,0l0,-33.333l8.333,0l0,-25l8.333,0l0,-41.667l-20.833,0l0,-4.167l-4.167,0l0,-4.167l-4.167,0l0,-4.167l-20.833,0l0,4.167l-4.167,0Z" style="fill:#981e08;"/><path d="M104.167,287.5l-4.167,0l0,-20.833l4.167,0l0,-4.167l4.167,0l0,-4.167l4.167,0l0,-4.167l20.833,0l0,4.167l4.167,0l0,20.833l8.333,0l0,8.333l-4.167,0l0,4.167l-4.167,0l0,4.167l-4.167,0l0,4.167l-20.833,0l0,-4.167l-4.167,0l0,-4.167l-4.167,0l0,-4.167Zm108.333,0l-4.167,0l0,-20.833l4.167,0l0,-4.167l8.333,0l0,8.333l8.333,0l0,8.333l8.333,0l0,8.333l8.333,0l0,-25l4.167,0l0,4.167l4.167,0l0,20.833l-4.167,0l0,4.167l-4.167,0l0,4.167l-4.167,0l0,4.167l-20.833,0l0,-4.167l-4.167,0l0,-4.167l-4.167,0l0,-4.167Zm41.667,-141.667l-45.833,0l0,-8.333l4.167,0l0,-4.167l4.167,0l0,-4.167l4.167,0l0,-4.167l20.833,0l0,4.167l4.167,0l0,4.167l4.167,0l0,4.167l4.167,0l0,8.333Zm-141.667,20.833l-4.167,0l0,-8.333l4.167,0l0,-4.167l4.167,0l0,-4.167l4.167,0l0,-4.167l4.167,0l0,-4.167l4.167,0l0,-4.167l8.333,0l0,-4.167l4.167,0l0,4.167l4.167,0l0,20.833l-4.167,0l0,4.167l-4.167,0l0,4.167l-4.167,0l0,4.167l-20.833,0l0,-4.167Z" style="fill:#a85517;"/><path d="M70.833,195.833l-8.333,0l0,-8.333l25,0l0,8.333l-8.333,0l0,8.333l-8.333,0l0,-8.333Zm16.667,-8.333l0,-8.333l33.333,0l0,8.333l-33.333,0Zm33.333,-8.333l0,-8.333l25,0l0,8.333l-25,0Zm25,-8.333l0,-8.333l25,0l0,8.333l-25,0Zm25,-8.333l0,-8.333l16.667,0l0,8.333l-16.667,0Zm16.667,-8.333l0,-8.333l66.667,0l0,8.333l-8.333,0l0,8.333l-8.333,0l0,-8.333l-50,0Zm66.667,-8.333l0,-8.333l16.667,0l0,41.667l-8.333,0l0,-33.333l-8.333,0Zm8.333,33.333l0,25l-8.333,0l0,-25l8.333,0Zm-8.333,25l0,33.333l-8.333,0l0,-33.333l8.333,0Zm-8.333,33.333l0,50l-8.333,0l0,-8.333l-8.333,0l0,-8.333l8.333,0l0,-33.333l8.333,0Zm-16.667,33.333l-8.333,0l0,-8.333l8.333,0l0,8.333Zm-8.333,-8.333l-8.333,0l0,-16.667l8.333,0l0,16.667Zm-8.333,-16.667l-8.333,0l0,-8.333l8.333,0l0,8.333Zm-8.333,0l0,8.333l-8.333,0l0,8.333l-25,0l0,-8.333l16.667,0l0,-8.333l16.667,0Zm-33.333,16.667l0,8.333l-8.333,0l0,8.333l-8.333,0l0,-50l8.333,0l0,-8.333l8.333,0l0,8.333l8.333,0l0,8.333l-16.667,0l0,25l8.333,0Zm-16.667,16.667l0,8.333l-8.333,0l0,-8.333l8.333,0Zm-8.333,0l-8.333,0l0,-33.333l8.333,0l0,33.333Zm-8.333,-33.333l-8.333,0l0,-16.667l-8.333,0l0,-8.333l-8.333,0l0,-8.333l16.667,0l0,-8.333l16.667,0l0,8.333l-8.333,0l0,33.333Zm-25,-25l0,8.333l-16.667,0l0,-8.333l16.667,0Zm-16.667,0l-8.333,0l0,-8.333l8.333,0l0,8.333Zm-8.333,-8.333l-8.333,0l0,-8.333l8.333,0l0,8.333Zm58.333,-8.333l0,-8.333l16.667,0l0,8.333l-16.667,0Zm16.667,-8.333l0,-8.333l16.667,0l0,8.333l-16.667,0Zm16.667,-8.333l0,-8.333l16.667,0l0,8.333l-16.667,0Zm16.667,-8.333l0,-8.333l25,0l0,-8.333l16.667,0l0,8.333l-8.333,0l0,8.333l-8.333,0l0,8.333l-8.333,0l0,-8.333l-16.667,0Zm16.667,8.333l0,8.333l-8.333,0l0,-8.333l8.333,0Zm-8.333,8.333l0,8.333l-8.333,0l0,-8.333l8.333,0Zm-8.333,8.333l0,8.333l-16.667,0l0,-8.333l16.667,0Zm-16.667,8.333l0,8.333l-8.333,0l0,-8.333l8.333,0Zm0,25l8.333,0l0,8.333l-8.333,0l0,-8.333Z" style="fill:#5f2b17;"/><path d="M337.5,154.167l4.167,0l0,4.167l4.167,0l0,4.167l4.167,0l0,4.167l4.167,0l0,8.333l4.167,0l0,4.167l4.167,0l0,8.333l4.167,0l0,8.333l4.167,0l0,8.333l4.167,0l0,12.5l4.167,0l0,16.667l4.167,0l0,58.333l-4.167,0l0,16.667l-4.167,0l0,12.5l-4.167,0l0,8.333l-4.167,0l0,8.333l-4.167,0l0,8.333l-4.167,0l0,4.167l-4.167,0l0,8.333l-4.167,0l0,4.167l-4.167,0l0,4.167l-4.167,0l0,4.167l-4.167,0l0,4.167l-4.167,0l0,4.167l-4.167,0l0,4.167l-4.167,0l0,4.167l-4.167,0l0,4.167l-4.167,0l0,4.167l-8.333,0l0,4.167l-4.167,0l0,4.167l-8.333,0l0,4.167l-8.333,0l0,4.167l-8.333,0l0,4.167l-12.5,0l0,4.167l-16.667,0l0,4.167l-58.333,0l0,-4.167l-16.667,0l0,-4.167l-12.5,0l0,-4.167l-8.333,0l0,-4.167l-8.333,0l0,-4.167l-8.333,0l0,-4.167l-4.167,0l0,-4.167l-8.333,0l0,-4.167l-4.167,0l0,-4.167l-4.167,0l0,-4.167l-4.167,0l0,-4.167l-4.167,0l0,-4.167l-4.167,0l0,-4.167l-4.167,0l0,-4.167l-4.167,0l0,-4.167l-4.167,0l0,-4.167l-4.167,0l0,-8.333l-4.167,0l0,-4.167l-4.167,0l0,-4.167l8.333,0l0,4.167l4.167,0l0,4.167l8.333,0l0,4.167l8.333,0l0,4.167l8.333,0l0,4.167l12.5,0l0,4.167l16.667,0l0,4.167l58.333,0l0,-4.167l16.667,0l0,-4.167l12.5,0l0,-4.167l8.333,0l0,-4.167l8.333,0l0,-4.167l8.333,0l0,-4.167l4.167,0l0,-4.167l8.333,0l0,-4.167l4.167,0l0,-4.167l4.167,0l0,-4.167l4.167,0l0,-4.167l4.167,0l0,-4.167l4.167,0l0,-4.167l4.167,0l0,-4.167l4.167,0l0,-4.167l4.167,0l0,-4.167l4.167,0l0,-8.333l4.167,0l0,-4.167l4.167,0l0,-8.333l4.167,0l0,-8.333l4.167,0l0,-8.333l4.167,0l0,-12.5l4.167,0l0,-16.667l4.167,0l0,-58.333l-4.167,0l0,-16.667l-4.167,0l0,-12.5l-4.167,0l0,-8.333l4.167,0l0,4.167l4.167,0l0,4.167l4.167,0l0,4.167Zm-12.5,-12.5l-4.167,0l0,-4.167l4.167,0l0,4.167Z" style="fill:#a85517;"/><path d="M87.5,204.167l0,-16.667l33.333,0l0,-8.333l25,0l0,-8.333l25,0l0,-8.333l16.667,0l0,-8.333l50,0l0,8.333l-16.667,0l0,8.333l-25,0l0,8.333l-16.667,0l0,8.333l-16.667,0l0,8.333l-16.667,0l0,8.333l-16.667,0l0,8.333l-25,0l0,-8.333l-16.667,0Zm150,-41.667l8.333,0l0,-8.333l8.333,0l0,-8.333l8.333,0l0,33.333l-8.333,0l0,25l-8.333,0l0,33.333l-8.333,0l0,16.667l-8.333,0l0,-8.333l-16.667,0l0,-8.333l-25,0l0,-8.333l-16.667,0l0,-8.333l8.333,0l0,-8.333l16.667,0l0,-8.333l8.333,0l0,-8.333l8.333,0l0,-8.333l8.333,0l0,-8.333l8.333,0l0,-8.333l8.333,0l0,-8.333Zm-66.667,58.333l-16.667,0l0,8.333l-8.333,0l0,-8.333l-8.333,0l0,-8.333l8.333,0l0,-8.333l16.667,0l0,-8.333l16.667,0l0,-8.333l16.667,0l0,-8.333l16.667,0l0,8.333l-8.333,0l0,8.333l-8.333,0l0,8.333l-16.667,0l0,8.333l-8.333,0l0,8.333Z" style="fill:#e4c68a;"/><path d="M87.5,204.167l16.667,0l0,8.333l8.333,0l0,8.333l-16.667,0l0,-8.333l-8.333,0l0,-8.333Zm0,0l-8.333,0l0,-8.333l8.333,0l0,8.333Zm66.667,25l0,-8.333l8.333,0l0,8.333l-8.333,0Zm-8.333,16.667l-8.333,0l0,-25l8.333,0l0,8.333l8.333,0l0,50l-8.333,0l0,-33.333Zm16.667,16.667l0,-25l16.667,0l0,8.333l8.333,0l0,8.333l-16.667,0l0,8.333l-8.333,0Zm16.667,-25l0,-8.333l8.333,0l0,8.333l-8.333,0Zm8.333,0l16.667,0l0,8.333l-16.667,0l0,-8.333Zm41.667,25l-8.333,0l0,-16.667l8.333,0l0,8.333l8.333,0l0,16.667l-8.333,0l0,-8.333Z" style="fill:#cc783a;"/></svg>