<?xml version="1.0" encoding="UTF-8" standalone="no"?><!DOCTYPE svg PUBLIC "-//W3C//DTD SVG 1.1//EN" "http://www.w3.org/Graphics/SVG/1.1/DTD/svg11.dtd"><svg width="100%" height="100%" viewBox="0 0 5975 8750" version="1.1" xmlns="http://www.w3.org/2000/svg" xmlns:xlink="http://www.w3.org/1999/xlink" xml:space="preserve" xmlns:serif="http://www.serif.com/" style="fill-rule:evenodd;clip-rule:evenodd;stroke-linejoin:round;stroke-miterlimit:2;"><g><path d="M69.446,8425.938l-69.446,0l0,-8240.752l34.721,0l0,-46.295l52.083,0l0,-46.295l34.721,0l0,-46.295l34.721,0l0,-46.295l5607.638,-0l0,46.295l34.721,0l0,46.295l52.083,0l0,46.295l34.721,0l0,46.295l34.721,0l0,46.295l52.083,0l0,8240.752l-34.721,0l0,46.295l-69.446,0l0,46.295l-69.446,0l0,46.295l-5520.833,0l0,-46.295l-69.446,0l0,-46.295l-69.446,0l0,-46.295l-69.446,0l0,-46.295l0.017,0Zm5642.363,-162.039l0,-6504.638l-34.721,0l0,-46.295l-34.721,0l0,-138.889l34.721,0l0,-46.295l34.721,0l0,-740.74l-34.721,0l0,-46.295l-34.721,0l0,-69.445l34.721,0l0,-46.295l34.721,0l0,-185.184l-34.721,0l0,-162.039l-34.721,0l0,-46.295l-954.863,0l0,46.295l-52.083,0l0,-46.295l-3645.833,0l-0,46.295l-34.721,0l0,69.445l-86.804,0l0,-69.445l-34.721,0l0,-46.295l-381.946,0l0,46.295l-34.721,0l0,69.445l-121.529,0l0,46.295l-52.083,0l0,46.295l-34.721,0l0,7824.085l34.721,0l0,46.295l173.613,0l0,46.295l34.721,0l0,46.295l1996.529,0l0,-46.295l34.721,0l0,-46.295l86.804,0l0,46.295l34.721,0l0,46.295l2413.196,0l0,-92.595l34.721,0l0,46.295l86.804,0l0,46.295l451.388,0l0,-46.295l52.083,0l0,-46.295l34.721,0l0,-46.295l34.725,-0Z" style="fill:#5f2b17;"/><path d="M5937.5,8518.527l0,-46.295l34.721,0l0,46.295l-34.721,0Zm-5868.054,-46.295l69.446,0l0,46.295l69.446,0l0,46.295l69.446,0l0,46.295l5520.833,0l0,-46.295l69.446,0l0,-46.295l69.446,0l0,46.295l-34.721,0l0,46.295l-34.721,0l0,46.295l-34.721,0l0,46.295l-34.721,0l0,46.295l-5555.554,0l-0,-46.295l-34.721,0l0,-46.295l-34.721,0l0,-46.295l-34.721,0l0,-46.295l-34.721,0l0,-46.295l-34.721,0l0,-46.295l-0.021,0Zm0,0l-34.721,0l0,-46.295l34.721,0l0,46.295Z" style="fill:#620000;"/></g><g><g><path d="M5520.833,486.109l-52.083,0l0,-46.295l52.083,0l0,46.295Zm34.721,46.295l-34.721,0l0,-46.295l34.721,0l0,46.295Zm-86.804,-92.595l-86.804,0l0,-46.295l86.804,0l0,46.295Zm121.529,0l-34.721,0l0,-46.295l34.721,0l0,46.295Zm-5347.221,7638.901l-34.721,0l0,-69.445l34.721,0l0,69.445Zm0,0l86.804,0l0,46.295l-86.804,0l0,-46.295Zm86.804,46.295l34.721,0l0,46.295l-34.721,0l0,-46.295Zm34.721,46.295l52.083,0l0,46.295l-52.083,0l0,-46.295Zm52.083,46.295l34.721,0l0,46.295l-34.721,0l0,-46.295Zm34.717,46.295l2031.254,0l0,-46.295l52.083,0l0,-92.595l34.721,0l0,138.889l2604.167,0l0,-46.295l52.083,0l0,46.295l86.804,0l0,-46.295l34.721,0l0,46.295l208.333,0l0,46.295l-5104.167,0l-0,-46.295Zm4774.308,-46.295l0,-46.295l34.721,0l0,46.295l-34.721,0Zm34.721,-46.295l0,-162.039l52.083,0l0,162.039l-52.083,0Zm0,-162.039l-34.721,0l0,-46.295l34.721,0l0,46.295Zm-34.721,-46.295l-52.083,0l0,-46.295l52.083,0l0,46.295Zm-52.083,-46.295l-34.721,0l0,-46.295l34.721,0l0,46.295Zm-34.721,-46.295l-34.721,0l0,-92.595l34.721,0l0,92.595Zm0,-92.595l0,-46.295l295.138,0l0,46.295l-295.138,0Zm295.138,-46.295l0,-46.295l86.804,0l0,46.295l-86.804,0Zm86.804,-46.295l0,-69.445l34.721,0l0,69.445l-34.721,0Zm34.721,-69.445l0,-46.295l34.721,0l0,-5902.787l-34.721,0l0,-46.295l-34.721,0l0,-46.295l69.446,0l0,-995.374l-34.721,0l0,-46.295l34.721,0l0,-92.595l52.083,0l0,7777.79l-52.083,0l0,-208.334l-34.721,0l0,-92.595l34.721,0l0,-185.184l-34.721,0l0,-46.295l34.721,0l0,-69.445l-34.721,0l-0.004,-0.006Zm34.721,601.851l0,46.295l-34.721,0l0,-46.295l34.721,0Zm-5138.888,92.595l-0,46.295l-34.721,0l0,-46.295l34.721,0Zm-34.721,0l-52.083,0l0,-46.295l52.083,0l0,46.295Zm-52.083,-46.295l-69.446,0l0,-46.295l69.446,0l0,46.295Zm-69.446,0l0,46.295l-52.083,0l0,-46.295l52.083,0Zm-52.083,0l-34.721,0l0,-46.295l34.721,0l0,46.295Zm0,-46.295l0,-46.295l52.083,0l0,46.295l-52.083,0Zm0,-46.295l-34.721,0l0,-46.295l34.721,0l0,46.295Zm5104.167,46.295l0,-46.295l86.804,0l0,46.295l-86.804,0Zm86.804,-46.295l0,-46.295l34.721,0l0,46.295l-34.721,0Zm121.529,-162.039l0,69.445l-34.721,0l0,-69.445l34.721,0Zm0,-277.778l0,46.295l-34.721,0l0,-46.295l34.721,0Zm-34.721,46.295l0,92.595l-52.083,0l0,-92.595l52.083,0Zm-52.083,92.595l0,46.295l-86.804,0l0,-46.295l86.804,0Zm-86.804,46.295l0,46.295l-34.721,0l0,-46.295l34.721,0Zm-34.721,46.295l0,46.295l-34.721,0l0,-46.295l34.721,0Zm-4895.833,393.517l1996.529,0l0,46.295l-1996.529,0l0,-46.295Zm52.083,-8125.013l0,46.295l-52.083,0l0,-46.295l52.083,0Zm329.863,0l0,46.295l-52.083,0l0,-46.295l52.083,0Zm208.333,0l0,46.295l-52.083,0l0,-46.295l52.083,0Zm3593.75,0l0,46.295l-34.721,0l0,-46.295l34.721,0Zm-4305.554,115.739l0,46.295l-34.721,0l0,-46.295l34.721,0Zm-86.804,92.595l0,46.295l-34.721,0l0,-46.295l34.721,0Zm5468.75,0l0,185.184l-34.721,0l0,-185.184l34.721,0Zm0,347.223l0,740.74l-34.721,0l0,-740.74l34.721,0Zm0,972.224l0,6504.638l-34.721,0l0,-6504.638l34.721,-0Zm-69.446,6550.938l0,46.295l-52.083,0l0,-46.295l52.083,0Zm-625,46.295l0,46.295l-2413.196,0l0,-46.295l2413.196,0Zm538.196,0l0,46.295l-416.667,0l0,-46.295l416.667,0Z" style="fill:#a85619;"/><path d="M243.054,486.109l0,-92.595l86.804,0l0,46.295l-34.721,0l0,46.295l-52.083,0l0,0.006Zm260.417,-208.334l0,-46.295l34.721,0l0,46.295l-34.721,0Zm-260.417,208.334l0,46.295l-34.721,0l0,-46.295l34.721,0Zm86.804,-92.595l0,-46.295l86.804,0l0,-69.445l86.804,0l0,69.445l-52.083,0l0,46.295l-121.529,0l0.004,0Zm711.804,-115.739l0,-46.295l34.721,0l0,46.295l-34.721,0Zm-52.083,69.445l0,-69.445l52.083,0l0,69.445l-52.083,0Zm0,0l0,46.295l-121.529,0l0,-46.295l121.529,0Zm3611.112,-69.445l34.721,0l0,69.445l-34.721,0l0,-69.445Zm0,0l-34.721,0l0,-46.295l34.721,0l0,46.295Zm34.721,69.445l52.083,0l0,46.295l-52.083,0l0,-46.295Zm920.138,-69.445l86.804,0l0,162.039l-52.083,0l0,-46.295l-34.721,0l0,-115.745Zm34.721,162.039l0,92.595l-34.721,0l0,-46.295l-34.721,0l0,-92.595l34.721,0l0,46.295l34.721,0Zm-34.721,-162.039l-34.721,0l0,-46.295l34.721,0l0,46.295Zm86.804,162.039l34.721,0l0,231.484l-34.721,0l0,-231.484Zm-86.804,1226.852l34.721,0l0,46.295l-34.721,0l0,-46.295Zm-34.721,-46.295l-52.083,0l0,-46.295l52.083,0l0,46.295Zm0,0l34.721,0l0,46.295l-34.721,0l0,-46.295Zm-173.613,6296.304l0,-46.295l34.721,0l0,46.295l-34.721,0Zm121.529,92.6l0,-46.3l52.083,0l0,-46.295l34.721,0l0,92.595l-86.804,0Zm86.804,254.623l-208.333,0l0,-46.295l86.804,0l0,-46.295l121.529,0l0,92.595l0,-0.006Zm-208.333,-46.295l-34.721,0l0,46.295l-86.804,0l0,-46.295l34.721,0l0,-46.295l52.083,0l0,-162.039l69.446,0l0,69.445l52.083,0l0,-69.445l34.721,0l0,69.445l52.083,0l0,46.295l-86.804,0l0,46.295l-86.804,0l0,46.295l-0.004,0.006Zm-34.717,-208.334l-52.087,0l0,-46.295l-34.721,0l0,-46.295l121.529,0l0,46.295l-34.721,0l0,46.295Zm-86.808,-92.595l-52.083,0l0,-46.295l52.083,0l0,46.295Zm329.863,347.223l34.721,0l0,-46.295l52.083,0l0,-6504.638l34.721,-0l0,6597.233l-86.804,0l0,92.595l-34.721,0l0,-46.295l-503.471,0l0,-46.295l503.471,0l0,-46.306Zm0,-486.112l0,-46.295l34.721,0l0,46.295l-34.721,0Zm0,0l0,92.595l-34.721,0l0,-92.595l34.721,0Zm-3020.833,347.223l0,-46.295l34.721,0l0,46.295l-34.721,0Zm0,0l0,92.595l-52.083,0l0,46.295l-86.804,0l0,-46.295l52.083,0l0,-46.295l34.721,0l0,-46.295l52.083,0l0,-0.006Zm-2118.054,138.889l34.721,0l0,46.295l-34.721,0l0,-46.295Zm34.721,46.295l2031.25,0l0,46.295l-2031.25,0l0,-46.295Zm-156.25,-46.295l-52.083,0l0,-46.295l52.083,0l0,46.295Zm0,-46.295l0,-46.295l69.446,0l0,46.295l-69.446,0Zm69.446,0l52.083,0l0,46.295l-52.083,0l0,-46.295Zm0,46.295l0,46.295l-69.446,0l0,-46.295l69.446,0Zm5312.5,-7523.162l0,833.335l-34.721,0l0,-833.335l34.721,0Zm-659.721,7569.456l0,46.295l-2447.917,0l0,-46.295l2447.917,0Z" style="fill:#cc783a;"/></g><path d="M5555.554,277.775l0,-46.295l86.804,0l0,46.295l-86.804,0Zm-4565.971,69.445l-34.721,0l0,-69.445l34.721,0l0,69.445Zm4652.779,-69.445l34.721,0l0,162.039l-34.721,0l0,-162.039Zm-5399.304,7893.529l0,46.295l-34.721,0l0,-46.295l34.721,0Zm0,-162.039l-34.721,0l0,-7476.862l34.721,0l0,-46.295l52.083,0l0,-46.295l34.721,0l0,-46.295l121.529,0l0,-46.295l52.083,0l0,-69.445l34.721,0l0,-46.295l243.054,0l0,46.295l86.804,0l0,115.739l121.529,0l0,-46.295l52.083,0l0,-69.445l34.721,0l0,-46.295l3489.583,0l0,46.295l34.721,0l0,69.445l34.721,0l0,46.295l52.083,0l0,-46.295l-52.083,0l0,-69.445l52.083,0l0,-46.295l833.333,0l0,46.295l34.721,0l0,115.739l-34.721,0l0,46.295l-52.083,0l0,-46.295l-86.804,0l0,46.295l86.804,0l0,46.295l52.083,0l0,46.295l34.721,0l0,46.295l34.721,0l0,995.374l-121.529,0l0,46.295l52.083,0l0,46.295l34.721,0l0,46.295l34.721,0l0,5856.493l-34.721,0l0,46.295l-34.721,0l0,69.445l-86.804,0l0,46.295l-295.138,0l0,46.295l-34.721,0l0,92.595l34.721,0l0,46.295l34.721,0l0,46.295l52.083,0l0,46.295l34.721,0l0,162.039l-34.721,0l0,46.295l-52.083,0l0,46.295l-2604.167,0l0,-185.184l-34.721,0l0,46.295l-52.083,0l0,46.295l-34.721,0l0,46.295l-52.083,0l0,46.295l-1944.446,0l-0,-46.295l-34.721,0l0,-46.295l-52.083,0l0,-46.295l-34.721,0l0,-46.295l-86.804,0l0,-69.445l0.004,0.011Zm5312.5,-393.517l34.721,0l0,69.445l-34.721,0l0,-69.445Zm0,69.445l0,46.295l-34.721,0l0,-46.295l34.721,0Zm-34.721,46.295l0,46.295l-52.083,0l0,92.595l-121.529,0l0,46.295l-121.529,0l0,-46.295l-86.804,0l0,-92.595l295.138,0l0,-46.295l86.808,0Zm-5190.971,393.517l0,46.295l-86.804,0l0,-46.295l86.804,0Zm-86.804,0l-34.721,0l0,-46.295l34.721,0l0,46.295Zm5225.696,-115.739l52.083,0l0,69.445l-52.083,0l0,-69.445Zm-0.004,-138.889l86.808,0l0,-92.595l34.721,0l0,138.889l-69.446,0l0,46.295l-52.083,0l0,46.295l-34.721,0l0,69.445l-52.083,0l0,-69.445l-34.721,0l0,-46.295l34.721,0l0,-46.295l86.804,0l0,-46.295Zm52.087,208.334l34.721,0l0,-69.445l34.721,0l0,208.334l-34.721,0l0,-46.295l-86.804,0l0,-46.295l52.083,0l0,-46.3Z" style="fill:#e4c68a;"/></g></svg>