<?xml version="1.0" encoding="UTF-8" standalone="no"?><!DOCTYPE svg PUBLIC "-//W3C//DTD SVG 1.1//EN" "http://www.w3.org/Graphics/SVG/1.1/DTD/svg11.dtd"><svg width="100%" height="100%" viewBox="0 0 10105 7330" version="1.1" xmlns="http://www.w3.org/2000/svg" xmlns:xlink="http://www.w3.org/1999/xlink" xml:space="preserve" xmlns:serif="http://www.serif.com/" style="fill-rule:evenodd;clip-rule:evenodd;stroke-linejoin:round;stroke-miterlimit:2;"><path d="M34.721,3854.167l-34.721,0l0,-1458.333l34.721,0l0,-34.721l34.721,0l0,-34.721l34.721,0l0,-34.721l34.721,0l0,-34.721l34.721,0l0,-34.721l34.721,0l0,-243.054l-34.721,0l0,-34.721l-34.721,0l0,-34.721l-34.721,0l0,-34.721l-34.721,0l0,-34.721l-34.721,0l0,-572.917l34.721,0l0,-225.696l34.721,0l0,-208.333l34.721,0l0,-243.054l34.721,0l0,-416.667l34.721,-0l0,-34.721l34.721,0l0,-34.721l34.721,0l0,-34.721l34.721,0l0,-34.721l34.721,0l0,-34.721l625,-0l0,34.721l34.721,0l0,34.721l1006.946,0l0,34.721l34.721,0l0,34.721l1059.029,0l0,34.721l34.721,0l0,34.721l6649.304,0l0,34.721l34.721,0l0,34.721l34.721,0l0,34.721l34.721,0l0,34.721l34.721,0l0,34.721l34.721,0l0,243.054l34.721,0l0,208.333l34.721,0l0,225.696l34.721,0l0,572.917l-34.721,0l0,34.721l-34.721,0l0,34.721l-34.721,0l0,34.721l-34.721,0l0,34.721l-34.721,0l0,243.054l34.721,0l0,34.721l34.721,0l0,34.721l34.721,0l0,34.721l34.721,0l0,34.721l34.721,0l0,34.721l34.721,0l0,2951.387l-34.721,0l0,34.721l-34.721,0l0,34.721l-34.721,0l0,34.721l-34.721,0l0,34.721l-34.721,0l0,34.721l-34.721,0l0,243.054l34.721,0l0,34.721l34.721,0l0,34.721l34.721,0l0,34.721l34.721,0l0,34.721l34.721,0l0,572.917l-34.721,0l0,225.696l-34.721,0l0,208.333l-34.721,0l0,243.054l-34.721,0l0,34.721l-34.721,0l0,34.721l-34.721,0l0,34.721l-34.721,0l0,34.721l-34.721,0l0,34.721l-6822.917,0l0,34.721l-34.721,0l0,34.721l-1059.029,0l0,34.721l-34.721,0l0,34.721l-1006.946,0l0,34.721l-34.721,0l0,34.721l-625,0l-0,-34.721l-34.721,0l0,-34.721l-34.721,0l0,-34.721l-34.721,0l0,-34.721l-34.721,0l0,-34.721l-34.721,0l0,-1388.887l34.721,0l0,-34.721l34.721,0l0,-34.721l34.721,0l0,-34.721l34.721,0l0,-34.721l34.721,0l0,-34.721l34.721,0l0,-243.054l-34.721,0l0,-34.721l-34.721,0l0,-34.721l-34.721,0l0,-34.721l-34.721,0l0,-34.721l-34.721,0l0,-572.917l34.721,0l0,-225.696l34.721,0l0,-208.333l34.721,0l0,-243.054l-34.721,0l0,-34.721l-34.721,0l0,-34.721l-34.721,0l0,-34.721l0.008,0.012Zm138.887,-1423.612l0,347.221l138.888,0l0,34.721l-34.721,0l0,34.721l-34.721,0l0,34.721l-34.721,0l0,34.721l-34.721,0l0,798.613l34.721,0l0,34.721l34.721,0l0,34.721l34.721,0l0,34.721l34.721,0l0,416.667l-34.721,0l0,208.333l-34.721,0l0,243.054l-34.721,0l0,486.113l34.721,0l0,34.721l34.721,0l0,34.721l34.721,0l0,34.721l34.721,0l0,34.721l34.721,0l0,312.5l-34.721,0l0,34.721l-34.721,0l0,34.721l-34.721,0l0,34.721l-34.721,0l0,34.721l-34.721,0l0,34.721l-34.721,0l0,347.221l138.887,0l0,34.721l-34.721,0l0,34.721l-36.113,0l0,34.746l-33.333,-0.025l0,34.721l-34.721,0l0,763.887l34.721,0l0,34.721l34.721,0l0,34.721l34.721,0l0,34.721l486.113,0l0,-34.721l34.721,0l0,-34.721l1041.667,0l0,-34.721l34.721,0l0,-34.721l1059.029,0l0,-34.721l34.721,0l0,-34.721l4427.083,0l-0,-138.888l34.721,0l0,34.721l34.721,0l0,34.721l34.721,0l0,34.721l34.721,0l0,34.721l2118.054,0l0,-34.721l34.721,0l0,-34.721l34.721,0l0,-34.721l34.721,0l0,-34.721l34.721,0l0,-138.887l34.721,0l0,-208.333l34.721,0l0,-243.054l34.721,0l0,-486.113l-34.721,0l0,-34.721l-34.721,0l0,-34.721l-34.721,0l0,-34.721l-34.721,0l0,-34.721l-34.721,0l0,-312.5l34.721,0l0,-34.721l34.721,0l0,-34.721l34.721,0l0,-34.721l34.721,0l0,-34.721l34.721,0l0,-34.721l34.721,0l0,-347.221l-138.888,0l0,-34.721l34.721,0l0,-34.721l34.721,0l0,-34.721l34.721,0l0,-34.721l34.721,0l0,-1909.721l-34.721,0l0,-34.721l-34.721,0l0,-34.721l-34.721,0l0,-34.721l-34.721,0l0,-34.721l138.888,0l0,-347.221l-34.721,0l0,-34.721l-34.721,0l0,-34.721l-34.721,0l0,-34.721l-34.721,0l0,-34.721l-34.721,0l0,-34.721l-34.721,0l0,-312.5l34.721,0l0,-34.721l34.721,0l0,-34.721l34.721,0l0,-34.721l34.721,0l0,-34.721l34.721,0l0,-486.112l-34.721,0l0,-243.054l-34.721,0l0,-208.333l-34.721,0l0,-138.888l-34.721,0l0,-34.721l-34.721,0l0,-34.721l-34.721,0l0,-34.721l-34.721,0l0,-34.721l-1944.446,0l0,34.721l-34.721,0l0,34.721l-34.721,0l0,34.721l-34.721,0l0,34.721l-34.721,0l0,-138.887l-4427.083,0l0,-34.721l-34.721,0l0,-34.721l-1059.029,0l0,-34.721l-34.721,0l0,-34.721l-1041.667,0l0,-34.721l-34.721,0l0,-34.721l-34.721,0l0,-34.721l-451.388,0l0,34.721l-34.721,0l0,34.721l-34.721,0l0,34.721l-34.721,0l0,347.221l-34.721,0l0,277.779l-34.721,0l0,208.333l-34.721,0l0,243.054l-34.721,0l0,486.113l34.721,0l0,34.721l34.721,0l0,34.721l34.721,0l0,34.721l34.721,0l0,34.721l34.721,0l0,312.5l-34.721,0l0,34.721l-34.721,0l0,34.721l-34.721,0l0,34.721l-34.721,0l0,34.721l-34.721,0l0,34.721l-34.721,0l-0.012,-0.012Z"/><path d="M4444.446,6631.946l0,34.721l-34.721,0l0,34.721l-34.721,0l0,34.721l-34.721,0l0,34.721l-34.721,0l0,34.721l-34.721,0l0,34.721l-1319.446,0l0,34.721l-34.721,0l0,34.721l-1076.388,0l0,34.721l-34.721,0l0,34.721l-1041.667,0l0,34.721l-34.721,0l0,34.721l-381.946,0l0,-34.721l-34.721,0l0,-34.721l-34.721,0l0,-34.721l-34.721,0l0,-34.721l-34.721,0l0,-34.721l-34.721,0l0,-486.113l34.721,0l0,-34.721l34.721,0l0,-34.721l34.721,0l0,-34.721l34.721,0l0,-34.721l34.721,0l0,-34.721l34.721,0l0,-34.721l34.721,0l0,-34.721l-173.613,0l0,-312.5l34.721,0l0,-34.721l34.721,0l0,-34.721l34.721,0l0,-34.721l34.721,0l0,-520.833l-34.721,0l0,-34.721l-34.721,0l0,-34.721l-34.721,0l0,-902.779l34.721,0l0,-416.667l-34.721,0l0,-34.721l-34.721,0l0,-34.721l-34.721,0l0,-34.721l-34.721,0l0,-798.613l34.721,0l0,-34.721l34.721,0l0,-34.721l34.721,0l0,-34.721l34.721,0l0,-34.721l-138.887,0l0,-347.221l34.721,0l0,-34.721l34.721,0l0,-34.721l34.721,0l0,-34.721l34.721,0l0,-34.721l34.721,0l0,-34.721l34.721,0l0,-312.5l-34.721,0l0,-34.721l-34.721,0l0,-34.721l-34.721,0l0,-34.721l-34.721,0l0,-34.721l-34.721,0l0,-486.113l34.721,0l0,-243.054l34.721,0l0,-208.333l34.721,0l0,-277.779l34.721,0l0,-347.221l34.721,-0l0,-34.721l34.721,0l0,-34.721l34.721,0l0,-34.721l451.387,0l0,34.721l34.721,0l0,34.721l34.721,0l0,34.721l1041.667,0l-0,34.721l34.721,0l0,34.721l1059.029,0l0,34.721l34.721,0l0,34.721l4427.083,0l-0,138.887l34.721,0l0,-34.721l34.721,0l0,-34.721l34.721,0l0,-34.721l34.721,0l0,-34.721l1944.446,0l0,138.887l34.721,0l0,34.721l34.721,0l0,104.167l34.721,0l0,208.333l34.721,0l0,243.054l34.721,0l0,416.667l-34.721,0l0,34.721l-34.721,0l0,34.721l-34.721,0l0,34.721l-34.721,0l0,34.721l-34.721,0l0,416.667l34.721,0l0,34.721l34.721,0l0,34.721l34.721,0l0,34.721l34.721,0l0,34.721l34.721,0l0,34.721l34.721,0l0,312.5l-173.612,0l0,34.721l34.721,0l0,34.721l34.721,0l0,34.721l34.721,0l0,34.721l34.721,0l0,34.721l34.721,0l0,1840.279l-34.721,0l0,34.721l-34.721,0l0,34.721l-34.721,0l0,34.721l-34.721,0l0,34.721l-34.721,0l0,34.721l173.612,0l0,277.779l-34.721,0l0,34.721l-34.721,0l0,34.721l-34.721,0l0,34.721l-34.721,0l0,34.721l-34.721,0l0,34.721l-34.721,0l0,34.721l-34.721,0l0,381.946l34.721,0l0,34.721l34.721,0l0,34.721l34.721,0l0,34.721l34.721,0l0,34.721l34.721,0l0,416.667l-34.721,0l0,34.721l-34.721,0l0,451.388l-34.721,0l0,34.721l-34.721,0l0,34.721l-34.721,0l0,34.721l-34.721,0l0,34.721l-34.721,0l0,34.721l-2013.888,0l0,-34.721l-34.721,0l0,-34.721l-34.721,0l0,-34.721l-34.721,0l0,-34.721l-34.721,0l0,138.888l-2916.667,0l0,-208.333l-34.721,0l0.004,0.021Zm-173.612,-69.446l0,-69.446l-3750,0l-0,-208.333l-69.446,0l0,277.779l3819.446,0Zm5277.779,-5972.221l-1770.833,0l0,69.446l1701.388,0l0,1701.388l69.446,0l0,-1770.833Zm-2361.113,5972.221l0,-69.446l-2500,0l0,69.446l2500,0Zm2361.113,-1944.446l0,-1909.721l-69.446,0l0,1909.721l69.446,0Zm-9027.779,-2048.613l-0,-1909.721l6909.721,0l0,-69.446l-6979.167,0l-0,1979.167l69.446,0Zm8958.333,2395.833l0,1527.779l-1944.446,0l0,69.446l2013.888,0l0,-1597.221l-69.446,0l0.004,-0.004Zm-9027.779,-2048.613l-0,3020.833l69.446,0l0,-3020.833l-69.446,0Z" style="fill:#e4c68a;"/><path d="M241.578,6215.25l36.201,0.029l0,-34.721l34.721,0l0,-34.721l104.167,0l0,34.721l-34.721,0l0,34.721l-34.721,0l0,34.721l-34.721,0l0,34.721l-34.721,0l0,34.721l-34.721,0l0,34.721l-34.721,0l0,34.721l-34.721,0l0,-104.167l34.721,0l0,-34.721l33.325,0l-0.089,-34.746Zm9445.922,-5694.417l-34.721,0l0,-104.167l34.721,0l0,34.721l34.721,0l0,34.721l34.721,0l0,34.721l34.721,0l0,138.888l34.721,0l0,208.333l34.721,0l0,243.054l34.721,0l0,486.113l-34.721,0l0,34.721l-34.721,0l0,34.721l-34.721,0l0,34.721l-34.721,0l0,34.721l-34.721,0l0,312.5l34.721,0l0,34.721l34.721,0l0,34.721l34.721,0l0,34.721l34.721,0l0,34.721l34.721,0l0,34.721l34.721,0l0,347.221l-69.446,0l0,-312.5l-34.721,0l0,-34.721l-34.721,0l0,-34.721l-34.721,0l0,-34.721l-34.721,0l0,-34.721l-34.721,0l0,-34.721l-34.721,0l0,-416.667l34.721,0l0,-34.721l34.721,0l0,-34.721l34.721,0l0,-34.721l34.721,0l0,-34.721l34.721,0l0,-416.667l-34.721,0l0,-243.054l-34.721,0l0,-208.333l-34.721,0l0,-104.167l-34.721,0l0,-34.721l0.004,0.004Zm34.721,2083.333l-34.721,0l0,-34.721l104.167,0l0,34.721l34.721,0l0,34.721l34.721,0l0,34.721l34.721,0l0,34.721l34.721,0l0,1909.721l-34.721,0l0,34.721l-34.721,0l0,34.721l-34.721,0l0,34.721l-34.721,0l0,34.721l-104.167,0l0,-34.721l34.721,0l0,-34.721l34.721,0l0,-34.721l34.721,0l0,-34.721l34.721,0l0,-34.721l34.721,0l0,-1840.279l-34.721,0l0,-34.721l-34.721,0l0,-34.721l-34.721,0l0,-34.721l-34.721,0l0,-34.721Zm-2291.667,4201.388l-34.721,0l0,-104.167l34.721,0l0,34.721l34.721,0l0,34.721l34.721,0l0,34.721l34.721,0l0,34.721l2013.888,0l0,-34.721l34.721,0l0,-34.721l34.721,0l0,-34.721l34.721,0l0,-34.721l34.721,0l0,-34.721l34.721,0l0,-451.387l34.721,0l0,-34.721l34.721,0l0,-416.667l-34.721,0l0,-34.721l-34.721,0l0,-34.721l-34.721,0l0,-34.721l-34.721,0l0,-34.721l-34.721,0l0,-381.946l34.721,0l0,-34.721l34.721,0l0,-34.721l34.721,0l0,-34.721l34.721,0l0,-34.721l34.721,0l0,-34.721l34.721,0l0,-34.721l34.721,0l0,-277.779l69.446,0l0,347.221l-34.721,0l0,34.721l-34.721,0l0,34.721l-34.721,0l0,34.721l-34.721,0l0,34.721l-34.721,0l0,34.721l-34.721,0l0,312.5l34.721,0l0,34.721l34.721,0l0,34.721l34.721,0l0,34.721l34.721,0l0,34.721l34.721,0l0,486.113l-34.721,0l0,243.054l-34.721,0l0,208.333l-34.721,0l0,138.888l-34.721,0l0,34.721l-34.721,0l0,34.721l-34.721,0l0,34.721l-34.721,0l0,34.721l-2118.054,0l0,-34.721l-34.721,0l0,-34.721l-34.721,0l0,-34.721l-34.721,0l0,-34.721Zm-7222.221,243.054l-34.721,0l0,-173.612l34.721,0l0,34.721l34.721,0l0,34.721l34.721,0l0,34.721l34.721,0l0,34.721l34.721,0l0,34.721l381.946,0l0,-34.721l34.721,0l0,-34.721l1041.667,0l0,-34.721l34.721,0l0,-34.721l1076.388,0l0,-34.721l34.721,0l0,-34.721l1319.446,0l0,-34.721l34.721,0l0,-34.721l34.721,0l0,-34.721l34.721,0l0,-34.721l34.721,0l0,-34.721l34.721,0l0,-34.721l34.721,0l0,208.333l2916.667,0l0,104.167l-4427.083,0l0,34.721l-34.721,0l0,34.721l-1059.029,0l0,34.721l-34.721,0l0,34.721l-1041.667,0l0,34.721l-34.721,0l0,34.721l-486.113,0l0,-34.721l-34.721,0l0,-34.721l-34.721,0l0,-34.721l0.012,-0.004Zm243.054,-4479.167l0,-1979.167l6979.167,0l0,69.446l-6909.721,0l0,1909.721l-69.446,0Zm9027.779,-1909.721l-1701.388,0l0,-69.446l1770.833,0l0,1770.833l-69.446,0l0,-1701.388Zm69.446,2048.613l0,1909.721l-69.446,0l0,-1909.721l69.446,0Zm-9027.779,208.333l-0,3020.833l-69.446,0l0,-3020.833l69.446,0Zm-277.779,2256.946l-34.721,0l0,-486.113l34.721,0l0,-243.054l34.721,0l0,694.446l34.721,0l0,34.721l34.721,0l0,34.721l34.721,0l0,104.167l-34.721,0l0,-34.721l-34.721,0l0,-34.721l-34.721,0l0,-34.721l-34.721,0l0,-34.725Zm9305.554,1388.888l-2013.888,0l0,-69.446l1944.446,0l0,-1527.779l69.446,0l0,1597.221l-0.004,0.004Zm-9305.554,-416.667l-69.446,0l0,-347.221l34.721,0l0,-34.721l34.721,0l0,-34.721l34.721,0l0,-34.721l34.721,0l0,-34.721l34.721,0l0,-34.721l34.721,0l0,104.167l-34.721,0l0,34.721l-34.721,0l0,34.721l-34.721,0l0,34.721l-34.721,0l0,312.5l0.004,-0.004Zm4027.779,416.667l-3819.446,0l0,-277.779l69.446,0l0,208.333l3750,0l0,69.446Zm2916.667,-69.446l0,69.446l-2500,0l0,-69.446l2500,0Z" style="fill:#cc783b;"/></svg>