<?xml version="1.0" encoding="UTF-8" standalone="no"?><!DOCTYPE svg PUBLIC "-//W3C//DTD SVG 1.1//EN" "http://www.w3.org/Graphics/SVG/1.1/DTD/svg11.dtd"><svg width="100%" height="100%" viewBox="0 0 2425 900" version="1.1" xmlns="http://www.w3.org/2000/svg" xmlns:xlink="http://www.w3.org/1999/xlink" xml:space="preserve" xmlns:serif="http://www.serif.com/" style="fill-rule:evenodd;clip-rule:evenodd;stroke-linejoin:round;stroke-miterlimit:2;"><path d="M2375,475l8.333,0l0,8.333l8.333,0l0,8.333l8.333,0l0,8.333l8.333,0l0,8.333l8.333,0l0,137.5l-8.333,0l0,54.167l-8.333,0l0,50l-8.333,0l0,58.333l-8.333,0l0,8.333l-8.333,0l0,8.333l-8.333,0l0,8.333l-8.333,0l0,8.333l-8.333,0l0,8.333l-1637.5,0l0,8.333l-8.333,0l0,8.333l-254.167,0l0,8.333l-8.333,0l0,8.333l-241.667,0l0,8.333l-8.333,0l0,8.333l-150,0l-0,-8.333l-8.333,0l0,-8.333l-8.333,0l0,-8.333l-8.333,0l0,-8.333l-8.333,0l0,-8.333l-8.333,0l0,-333.333l8.333,0l0,-8.333l8.333,0l0,-8.333l8.333,0l0,-8.333l8.333,0l0,-8.333l8.333,0l0,-8.333l8.333,0l0,-58.333l-8.333,0l0,-8.333l-8.333,0l0,-8.333l-8.333,0l0,-8.333l-8.333,0l0,-8.333l-8.333,0l0,-137.5l8.333,0l0,-54.167l8.333,0l0,-50l8.333,0l0,-58.333l8.333,0l0,-8.333l8.333,0l0,-8.333l8.333,0l0,-8.333l8.333,0l0,-8.333l8.333,0l0,-8.333l1637.5,0l0,-8.333l8.333,0l0,-8.333l254.167,0l0,-8.333l8.333,0l0,-8.333l241.667,0l0,-8.333l8.333,0l0,-8.333l150,0l0,8.333l8.333,0l0,8.333l8.333,0l0,8.333l8.333,0l0,8.333l8.333,0l0,8.333l8.333,0l0,333.333l-8.333,0l0,8.333l-8.333,0l0,8.333l-8.333,0l0,8.333l-8.333,0l0,8.333l-8.333,0l0,8.333l-8.333,0l0,58.333Zm-2325,50l0,8.333l-8.333,0l0,83.333l33.333,0l0,8.333l-8.333,0l0,8.333l-8.333,0l0,8.333l-8.333,0l0,8.333l-8.333,0l0,183.333l8.333,0l0,8.333l8.333,0l0,8.333l8.333,0l0,8.333l116.667,0l0,-8.333l8.333,0l0,-8.333l250,0l0,-8.333l8.333,0l0,-8.333l254.167,0l0,-8.333l8.333,0l0,-8.333l1062.5,0l0,-33.333l8.333,0l0,8.333l8.333,0l0,8.333l8.333,0l0,8.333l8.333,0l0,8.333l508.333,0l0,-8.333l8.333,0l0,-8.333l8.333,0l0,-8.333l8.333,0l0,-8.333l8.333,0l0,-33.333l8.333,0l0,-50l8.333,0l0,-58.333l8.333,0l0,-116.667l-8.333,0l0,-8.333l-8.333,0l0,-8.333l-8.333,0l0,-8.333l-8.333,0l0,-8.333l-8.333,0l0,-75l8.333,0l0,-8.333l8.333,0l0,-8.333l8.333,0l0,-8.333l8.333,0l0,-8.333l8.333,0l0,-8.333l8.333,0l0,-83.333l-33.333,0l0,-8.333l8.333,0l0,-8.333l8.333,0l0,-8.333l8.333,0l0,-8.333l8.333,0l0,-208.333l-141.667,0l0,8.333l-8.333,0l0,8.333l-250,0l0,8.333l-8.333,0l0,8.333l-254.167,0l0,8.333l-8.333,0l0,8.333l-1062.5,0l0,33.333l-8.333,0l0,-8.333l-8.333,0l0,-8.333l-8.333,0l0,-8.333l-8.333,0l0,-8.333l-541.667,0l0,66.667l-8.333,0l0,50l-8.333,0l0,58.333l-8.333,0l0,116.667l8.333,0l0,8.333l8.333,0l0,8.333l8.333,0l0,8.333l8.333,0l0,8.333l8.333,0l0,75l-8.333,0l0,8.333l-8.333,0l0,8.333l-8.333,0l0,8.333l-8.333,0l0,8.333l-8.333,0Z"/><path d="M125,583.333l0,-450l475,-0l0,16.667l-458.333,0l0,433.333l-16.667,0Zm2141.667,-433.333l-1583.333,0l-0,-16.667l1600,0l0,104.167l-16.667,0l0,-87.5Zm16.667,558.333l-491.667,0l0,-16.667l475,0l0,-370.833l16.667,0l0,387.5Zm-1241.667,0l-916.667,0l0,-41.667l16.667,0l0,25l900,0l0,16.667Zm666.667,-16.667l0,16.667l-583.333,0l0,-16.667l583.333,0Z" style="fill:#cc783b;"/><path d="M50,791.667l-8.333,0l0,-116.667l8.333,0l0,-8.333l8.333,0l0,-8.333l8.333,0l0,-8.333l8.333,0l0,-8.333l8.333,0l0,-8.333l8.333,0l0,-8.333l8.333,0l0,-8.333l-41.667,0l0,-75l8.333,0l0,-8.333l8.333,0l0,-8.333l8.333,0l0,-8.333l8.333,0l0,-125l-8.333,0l0,-8.333l-8.333,0l0,-8.333l-8.333,0l0,-216.667l8.333,0l0,-66.667l541.667,0l0,8.333l8.333,0l0,8.333l8.333,0l0,8.333l8.333,0l0,8.333l8.333,0l0,-33.333l1062.5,0l0,-8.333l8.333,0l0,-8.333l254.167,0l0,-8.333l8.333,0l0,-8.333l250,0l0,-8.333l8.333,0l0,-8.333l133.333,0l0,8.333l-8.333,0l0,191.667l-8.333,0l0,8.333l-8.333,0l0,8.333l-8.333,0l0,8.333l-8.333,0l0,8.333l-8.333,0l0,8.333l41.667,0l0,66.667l-8.333,0l0,8.333l-8.333,0l0,8.333l-8.333,0l0,8.333l-8.333,0l0,8.333l-8.333,0l0,8.333l-8.333,0l0,8.333l-8.333,0l0,91.667l8.333,0l0,8.333l8.333,0l0,8.333l8.333,0l0,8.333l8.333,0l0,8.333l8.333,0l0,100l-8.333,0l0,8.333l-8.333,0l0,108.333l-8.333,0l0,8.333l-8.333,0l0,8.333l-8.333,0l0,8.333l-8.333,0l0,8.333l-8.333,0l0,8.333l-483.333,0l0,-8.333l-8.333,0l0,-8.333l-8.333,0l0,-8.333l-8.333,0l0,-8.333l-8.333,0l0,33.333l-700,0l0,-50l-8.333,0l0,8.333l-8.333,0l0,8.333l-8.333,0l0,8.333l-8.333,0l0,8.333l-8.333,0l0,8.333l-8.333,0l0,8.333l-316.667,0l0,8.333l-8.333,0l0,8.333l-258.333,0l0,8.333l-8.333,0l0,8.333l-250,0l0,8.333l-8.333,0l0,8.333l-91.667,0l0,-8.333l-8.333,0l0,-8.333l-8.333,0l0,-8.333l-8.333,0l0,-8.333l-8.333,0l0,-8.333Zm1658.333,-83.333l0,-16.667l-583.333,0l0,16.667l583.333,0Zm-1583.333,-41.667l0,41.667l916.667,0l0,-16.667l-900,0l-0,-25l-16.667,0Zm2158.333,41.667l0,-387.5l-16.667,0l0,370.833l-475,0l0,16.667l491.667,0Zm0,-575l-1600,-0l-0,16.667l1583.333,0l0,87.5l16.667,0l0,-104.167Zm-2158.333,0l0,450l16.667,0l0,-433.333l458.333,0l0,-16.667l-475,0Z" style="fill:#e4c68a;"/><path d="M50,833.333l-8.333,0l0,-41.667l8.333,0l0,8.333l8.333,0l0,8.333l8.333,0l0,8.333l8.333,0l0,8.333l8.333,0l0,8.333l91.667,0l0,-8.333l8.333,0l0,-8.333l250,0l0,-8.333l8.333,0l0,-8.333l258.333,0l0,-8.333l8.333,0l0,-8.333l316.667,0l0,-8.333l8.333,0l0,-8.333l8.333,0l0,-8.333l8.333,0l0,-8.333l8.333,0l0,-8.333l8.333,0l0,-8.333l8.333,0l0,50l700,0l0,25l-1062.5,0l0,8.333l-8.333,0l0,8.333l-254.167,0l0,8.333l-8.333,0l0,8.333l-250,0l0,8.333l-8.333,0l0,8.333l-116.667,0l0,-8.333l-8.333,0l0,-8.333l-8.333,0l0,-8.333Zm8.333,-450l-8.333,0l0,-116.667l8.333,0l0,-58.333l8.333,0l0,166.667l8.333,0l0,8.333l8.333,0l0,8.333l8.333,0l0,25l-8.333,0l0,-8.333l-8.333,0l0,-8.333l-8.333,0l0,-8.333l-8.333,0l0,-8.333Zm1725,391.667l-8.333,0l0,-25l8.333,0l0,8.333l8.333,0l0,8.333l8.333,0l0,8.333l8.333,0l0,8.333l483.333,0l0,-8.333l8.333,0l0,-8.333l8.333,0l0,-8.333l8.333,0l0,-8.333l8.333,0l0,-8.333l8.333,0l0,-108.333l8.333,0l0,-8.333l8.333,0l0,-100l-8.333,0l0,-8.333l-8.333,0l0,-8.333l-8.333,0l0,-8.333l-8.333,0l0,-8.333l-8.333,0l0,-91.667l8.333,0l0,-8.333l8.333,0l0,-8.333l8.333,0l0,-8.333l8.333,0l0,-8.333l8.333,0l0,-8.333l8.333,0l0,-8.333l8.333,0l0,-66.667l16.667,0l0,83.333l-8.333,0l0,8.333l-8.333,0l0,8.333l-8.333,0l0,8.333l-8.333,0l0,8.333l-8.333,0l0,8.333l-8.333,0l0,75l8.333,0l0,8.333l8.333,0l0,8.333l8.333,0l0,8.333l8.333,0l0,8.333l8.333,0l0,116.667l-8.333,0l0,58.333l-8.333,0l0,50l-8.333,0l0,33.333l-8.333,0l0,8.333l-8.333,0l0,8.333l-8.333,0l0,8.333l-8.333,0l0,8.333l-508.333,0l0,-8.333l-8.333,0l0,-8.333l-8.333,0l0,-8.333l-8.333,0l0,-8.333Zm-1725,-158.333l-16.667,0l0,-83.333l8.333,0l0,-8.333l8.333,0l0,-8.333l8.333,0l0,-8.333l8.333,0l0,-8.333l8.333,0l0,-8.333l8.333,0l0,25l-8.333,0l0,8.333l-8.333,0l0,8.333l-8.333,0l0,8.333l-8.333,0l0,75Zm-16.667,58.333l0,-25l8.333,0l0,-8.333l8.333,0l0,-8.333l8.333,0l0,-8.333l8.333,0l0,-8.333l25,0l0,8.333l-8.333,0l0,8.333l-8.333,0l0,8.333l-8.333,0l0,8.333l-8.333,0l0,8.333l-8.333,0l0,8.333l-8.333,0l0,8.333l-8.333,0Zm2308.333,-391.667l-25,0l0,-8.333l8.333,0l0,-8.333l8.333,0l0,-8.333l8.333,0l0,-8.333l8.333,0l0,-8.333l8.333,0l0,-191.667l8.333,0l0,-8.333l8.333,0l0,208.333l-8.333,-0l0,8.333l-8.333,0l0,8.333l-8.333,0l0,8.333l-8.333,0l0,8.333Z" style="fill:#cc783b;"/></svg>